<?xml version="1.0" encoding="UTF-8" standalone="no"?>
<!-- Created with Inkscape (http://www.inkscape.org/) -->

<svg
   width="200mm"
   height="200mm"
   viewBox="0 0 200 200"
   version="1.1"
   id="svg1"
   xml:space="preserve"
   sodipodi:docname="app-icon.svg"
   inkscape:version="1.3.2 (091e20e, 2023-11-25, custom)"
   xmlns:inkscape="http://www.inkscape.org/namespaces/inkscape"
   xmlns:sodipodi="http://sodipodi.sourceforge.net/DTD/sodipodi-0.dtd"
   xmlns:xlink="http://www.w3.org/1999/xlink"
   xmlns="http://www.w3.org/2000/svg"
   xmlns:svg="http://www.w3.org/2000/svg"><sodipodi:namedview
     id="namedview1"
     pagecolor="#ffffff"
     bordercolor="#000000"
     borderopacity="0.25"
     inkscape:showpageshadow="2"
     inkscape:pageopacity="0.0"
     inkscape:pagecheckerboard="0"
     inkscape:deskcolor="#d1d1d1"
     inkscape:document-units="mm"
     showguides="true"
     inkscape:zoom="0.46001116"
     inkscape:cx="682.59214"
     inkscape:cy="370.64318"
     inkscape:window-width="1920"
     inkscape:window-height="1009"
     inkscape:window-x="4856"
     inkscape:window-y="370"
     inkscape:window-maximized="1"
     inkscape:current-layer="layer4" /><defs
     id="defs1"><linearGradient
       id="swatch5"
       inkscape:swatch="solid"><stop
         style="stop-color:#ffffff;stop-opacity:1;"
         offset="0"
         id="stop5" /></linearGradient><linearGradient
       id="linearGradient2"
       inkscape:collect="always"><stop
         style="stop-color:#151e4b;stop-opacity:1"
         offset="0"
         id="stop2" /><stop
         style="stop-color:#115b95;stop-opacity:1"
         offset="1"
         id="stop3" /></linearGradient><linearGradient
       inkscape:collect="always"
       xlink:href="#linearGradient2"
       id="linearGradient8"
       gradientUnits="userSpaceOnUse"
       gradientTransform="matrix(1.3727767,0,0,7.4446754,-57.694036,-97.252048)"
       x1="16.015581"
       y1="31.920244"
       x2="161.70567"
       y2="32.031155" /><mask
       maskUnits="userSpaceOnUse"
       id="mask30"><rect
         style="fill:#ffffff;fill-opacity:1;fill-rule:evenodd;stroke:none;stroke-width:9.68264;stroke-dasharray:none;stroke-opacity:1"
         id="rect31"
         width="200"
         height="200"
         x="-35.708221"
         y="48.901806" /></mask></defs><g
     id="g30"
     mask="url(#mask30)"
     transform="translate(35.708221,-48.901806)"><rect
       style="display:inline;fill:url(#linearGradient8);fill-opacity:1;stroke:none;stroke-width:0.845833"
       id="rect2-5"
       width="200"
       height="200"
       x="-35.708221"
       y="48.901806" /><path
       id="rect5"
       style="fill:#ffffff;fill-opacity:1;stroke-width:0.264421"
       d="m 142.0289,54.503412 c -11.39883,2.05e-4 -20.63942,9.252118 -20.63963,20.664888 -8e-5,11.412976 9.2406,20.6652 20.63963,20.665406 11.39923,8e-5 20.64021,-9.252229 20.64014,-20.665406 -2e-4,-11.412972 -9.24111,-20.664968 -20.64014,-20.664888 z m 22.79189,44.724923 -3.78532,0.0909 h -42.32441 c 0,0 -10.45471,-0.37862 -14.95959,16.804665 -0.15455,0.58951 -0.30123,1.22441 -0.4542,1.82676 H -35.685424 v 2.1916 H 102.75224 c -3.851942,15.70773 -7.02819,34.15709 -7.02819,34.15709 l 0.10271,0.0279 c -0.149834,0.64965 -0.229432,1.31355 -0.23742,1.98024 -2.38e-4,5.13455 4.156953,9.29706 9.28523,9.29711 4.00799,-0.007 7.55891,-2.58875 8.80677,-6.40219 l 0.10375,0.0284 5.47307,-27.58126 c 0,0 2.28041,-2.37415 2.37162,1.27899 0.0637,2.55184 -0.0317,41.84632 -0.10632,70.23654 H -35.708065 v 2.19159 H 121.51727 c -0.0287,10.80853 -0.0697,26.93686 -0.0697,26.93686 l 0.15793,5.2e-4 c -7.1e-4,0.0518 -0.004,0.10302 -0.004,0.15503 -1.2e-4,5.992 4.8515,10.84958 10.83621,10.84946 5.53153,-1.5e-4 10.09152,-4.15118 10.75052,-9.51104 0.49096,5.53655 5.13336,9.87805 10.79078,9.87795 5.98472,1.1e-4 10.83632,-4.85746 10.83621,-10.84947 0,-0.11391 -0.005,-0.22645 -0.008,-0.33951 h 0.0139 z M 143.15303,232.38507 h 5.2e-4 c -0.006,0.14322 -0.0109,0.28638 -0.0109,0.43098 0,0.0433 0.003,0.086 0.003,0.12919 -7.1e-4,-0.0432 -0.004,-0.0858 -0.004,-0.12919 0,-0.14459 0.005,-0.28776 0.0108,-0.43098 z"
       sodipodi:nodetypes="ccccccccscccccccccccscccccccsccscccccscscc" /><path
       style="display:inline;fill:none;fill-opacity:1;fill-rule:evenodd;stroke:#ffffff;stroke-width:2.265;stroke-dasharray:none;stroke-opacity:1"
       d="m 33.051076,134.02401 c 3.896722,0.0606 8.280398,-31.11223 13.029527,-31.1728 4.749129,-0.0606 9.863418,30.99046 14.61254,30.92926 4.749121,-0.0612 9.132798,-31.23401 13.516604,-31.29458 4.383807,-0.0606 8.767483,30.99046 13.15129,31.2337 4.383808,0.24323 8.767396,-30.32012 13.151253,-31.53786 4.38387,-1.21773 4.7491,7.32046 9.13286,35.44962"
       id="path7"
       sodipodi:nodetypes="ccccccc" /><path
       style="display:inline;fill:none;fill-opacity:1;fill-rule:evenodd;stroke:#ffffff;stroke-width:2.265;stroke-dasharray:none;stroke-opacity:1"
       d="m -21.909772,134.69349 c 3.896722,0.0606 8.280398,-31.11223 13.0295265,-31.1728 4.7491281,-0.0606 9.86341685,30.99046 14.6125391,30.92926 4.7491204,-0.0612 9.1327994,-31.23401 13.5166054,-31.29458 4.383807,-0.0606 8.767483,30.99046 13.15129,31.2337 4.383808,0.24323 8.767396,-30.32012 13.151247,-31.53786"
       id="path7-1"
       sodipodi:nodetypes="cccccc" /><path
       style="display:inline;fill:none;fill-opacity:1;fill-rule:evenodd;stroke:#ffffff;stroke-width:2.265;stroke-dasharray:none;stroke-opacity:1"
       d="m -35.711949,103.82485 c 4.383807,-0.0606 8.767483,30.99046 13.15129,31.2337 4.383808,0.24323 8.767396,-30.32012 13.1512468,-31.53786"
       id="path7-1-9"
       sodipodi:nodetypes="ccc" /><path
       style="display:inline;fill:none;fill-opacity:1;fill-rule:evenodd;stroke:#ffffff;stroke-width:2.16501;stroke-dasharray:none;stroke-opacity:1"
       d="m 57.796075,224.19153 c 8.873258,0.0835 18.855363,-42.89023 29.669644,-42.97373 10.814281,-0.0835 22.460081,42.72236 33.274351,42.638 10.81427,-0.0844 20.79638,-43.05812 30.77879,-43.14162"
       id="path7-2"
       sodipodi:nodetypes="cssc" /><path
       style="display:inline;fill:none;fill-opacity:1;fill-rule:evenodd;stroke:#ffffff;stroke-width:2.16501;stroke-dasharray:none;stroke-opacity:1"
       d="m -35.788005,181.97321 c 10.814281,-0.0835 22.460071,42.72236 33.2743355,42.638 10.8142624,-0.0844 20.7963685,-43.05812 30.7787725,-43.14162 9.982401,-0.0835 19.964512,42.72237 29.530972,42.72194 9.56647,-4.3e-4 18.71673,-41.21881 28.69914,-42.89711"
       id="path7-2-3"
       sodipodi:nodetypes="csssc" /></g><g
     inkscape:groupmode="layer"
     id="layer4"
     inkscape:label="heart"
     transform="translate(6.1821528,-62.190071)"><path
       style="fill:#ff0000;fill-opacity:1;fill-rule:evenodd;stroke:none;stroke-width:2.165;stroke-dasharray:none;stroke-opacity:1"
       d="m 179.92869,132.15587 c 0,0 -4.39139,-6.07042 -9.29939,-0.12916 -6.07042,8.65358 9.42853,15.11147 9.42853,15.11147 0,0 14.59483,-6.97452 9.29936,-14.85315 -4.77884,-6.84536 -9.4285,-0.12916 -9.4285,-0.12916 z"
       id="path35"
       sodipodi:nodetypes="ccccc" /><path
       style="font-weight:bold;font-size:33.17px;line-height:30.8471px;font-family:Arial;-inkscape-font-specification:'Arial Bold';letter-spacing:0px;fill:#121d4a;fill-rule:evenodd;stroke-width:2.82728"
       d="m 168.40004,175.67583 v -23.74376 h 7.17495 l 4.30821,16.19629 4.25963,-16.19629 h 7.19115 v 23.74376 H 186.88 v -18.69052 l -4.71312,18.69052 h -4.61594 l -4.69693,-18.69052 v 18.69052 z"
       id="text35" /><path
       style="font-weight:bold;font-size:33.17px;line-height:30.8471px;font-family:Arial;-inkscape-font-specification:'Arial Bold';letter-spacing:0px;fill:#121d4a;fill-rule:evenodd;stroke-width:2.82728"
       d="m 170.40028,183.21266 h 4.7941 v 12.85986 q 0,3.06109 0.17816,3.96809 0.30773,1.45766 1.45767,2.34846 1.16613,0.8746 3.17447,0.8746 2.04073,0 3.07729,-0.82601 1.03657,-0.84221 1.24712,-2.05693 0.21055,-1.21472 0.21055,-4.03288 v -13.13519 h 4.7941 v 12.47114 q 0,4.27582 -0.38871,6.04122 -0.38871,1.7654 -1.44147,2.98012 -1.03656,1.21472 -2.78576,1.94355 -1.7492,0.71264 -4.56735,0.71264 -3.40122,0 -5.16662,-0.77742 -1.7492,-0.79362 -2.76956,-2.04074 -1.02037,-1.26331 -1.3443,-2.63999 -0.46969,-2.04073 -0.46969,-6.02502 z"
       id="text35-2" /><path
       style="font-weight:bold;font-size:33.17px;line-height:30.8471px;font-family:Arial;-inkscape-font-specification:'Arial Bold';letter-spacing:0px;fill:#121d4a;fill-rule:evenodd;stroke-width:2.82728"
       d="m 170.21402,230.05052 4.66453,-0.45349 q 0.4211,2.34846 1.70061,3.44981 1.2957,1.10135 3.4822,1.10135 2.31607,0 3.4822,-0.97178 1.18233,-0.98798 1.18233,-2.29988 0,-0.8422 -0.50208,-1.42527 -0.48589,-0.59926 -1.71681,-1.03656 -0.84221,-0.29153 -3.83852,-1.03656 -3.85472,-0.95558 -5.40956,-2.34847 -2.1865,-1.95975 -2.1865,-4.7779 0,-1.81398 1.02037,-3.38502 1.03657,-1.58724 2.96392,-2.41325 1.94355,-0.82601 4.68074,-0.82601 4.47017,0 6.72146,1.95975 2.26748,1.95975 2.38085,5.2314 l -4.7941,0.21055 q -0.30773,-1.83018 -1.3281,-2.6238 -1.00417,-0.80981 -3.0287,-0.80981 -2.08932,0 -3.27165,0.8584 -0.76123,0.55068 -0.76123,1.47386 0,0.84221 0.71264,1.44147 0.90699,0.76123 4.40539,1.58724 3.4984,0.82601 5.16661,1.71681 1.68442,0.8746 2.6238,2.41324 0.95558,1.52245 0.95558,3.77374 0,2.04073 -1.13374,3.82232 -1.13374,1.78159 -3.20686,2.65619 -2.07313,0.85841 -5.16662,0.85841 -4.50257,0 -6.91581,-2.07313 -2.41325,-2.08932 -2.88295,-6.07361 z"
       id="text35-2-5" /></g></svg>
